<mxfile host="app.diagrams.net" modified="2023-10-20T05:45:38.950Z" agent="Mozilla/5.0 (Windows NT 10.0; Win64; x64) AppleWebKit/537.36 (KHTML, like Gecko) Chrome/104.0.0.0 Safari/537.36" etag="Z6zZLa8jrB_o3xd24DU4" version="22.0.5" type="github">
  <diagram id="prtHgNgQTEPvFCAcTncT" name="Page-1">
    <mxGraphModel dx="2261" dy="707" grid="1" gridSize="10" guides="1" tooltips="1" connect="1" arrows="1" fold="1" page="1" pageScale="1" pageWidth="827" pageHeight="1169" math="0" shadow="0">
      <root>
        <mxCell id="0" />
        <mxCell id="1" parent="0" />
        <mxCell id="gxTMcey1-MkhpsV8qcMy-3" value="" style="edgeStyle=orthogonalEdgeStyle;rounded=0;orthogonalLoop=1;jettySize=auto;html=1;fontSize=16;fontFamily=Times New Roman;fontStyle=1;strokeWidth=2;" edge="1" parent="1" source="gxTMcey1-MkhpsV8qcMy-1" target="gxTMcey1-MkhpsV8qcMy-2">
          <mxGeometry relative="1" as="geometry" />
        </mxCell>
        <mxCell id="gxTMcey1-MkhpsV8qcMy-1" value="&lt;span style=&quot;color: rgb(52, 53, 65); font-size: 16px; font-style: normal; font-variant-ligatures: normal; font-variant-caps: normal; letter-spacing: normal; orphans: 2; text-indent: 0px; text-transform: none; widows: 2; word-spacing: 0px; -webkit-text-stroke-width: 0px; text-decoration-thickness: initial; text-decoration-style: initial; text-decoration-color: initial; float: none; display: inline !important;&quot;&gt;肺癌&lt;/span&gt;" style="text;whiteSpace=wrap;html=1;fillColor=#e1d5e7;strokeColor=#9673a6;align=center;fontSize=16;fontFamily=Times New Roman;fontStyle=1;strokeWidth=2;" vertex="1" parent="1">
          <mxGeometry x="310" y="110" width="70" height="30" as="geometry" />
        </mxCell>
        <mxCell id="gxTMcey1-MkhpsV8qcMy-5" value="" style="edgeStyle=orthogonalEdgeStyle;rounded=0;orthogonalLoop=1;jettySize=auto;html=1;fontSize=16;fontFamily=Times New Roman;fontStyle=1;strokeWidth=2;" edge="1" parent="1" source="gxTMcey1-MkhpsV8qcMy-2" target="gxTMcey1-MkhpsV8qcMy-4">
          <mxGeometry relative="1" as="geometry" />
        </mxCell>
        <mxCell id="gxTMcey1-MkhpsV8qcMy-2" value="&#xa;&lt;span style=&quot;color: rgb(52, 53, 65); font-size: 16px; font-style: normal; font-variant-ligatures: normal; font-variant-caps: normal; letter-spacing: normal; orphans: 2; text-align: start; text-indent: 0px; text-transform: none; widows: 2; word-spacing: 0px; -webkit-text-stroke-width: 0px; text-decoration-thickness: initial; text-decoration-style: initial; text-decoration-color: initial; float: none; display: inline !important;&quot;&gt;Afzelin&lt;/span&gt;&#xa;&#xa;" style="whiteSpace=wrap;html=1;verticalAlign=top;fillColor=#e1d5e7;strokeColor=#9673a6;gradientColor=none;fontSize=16;fontFamily=Times New Roman;fontStyle=1;strokeWidth=2;" vertex="1" parent="1">
          <mxGeometry x="285" y="180" width="120" height="60" as="geometry" />
        </mxCell>
        <mxCell id="gxTMcey1-MkhpsV8qcMy-7" value="" style="edgeStyle=orthogonalEdgeStyle;rounded=0;orthogonalLoop=1;jettySize=auto;html=1;fontSize=16;fontFamily=Times New Roman;fontStyle=1;strokeWidth=2;" edge="1" parent="1" source="gxTMcey1-MkhpsV8qcMy-4" target="gxTMcey1-MkhpsV8qcMy-6">
          <mxGeometry relative="1" as="geometry" />
        </mxCell>
        <mxCell id="gxTMcey1-MkhpsV8qcMy-4" value="&lt;span style=&quot;color: rgb(52, 53, 65); font-size: 16px; font-style: normal; font-variant-ligatures: normal; font-variant-caps: normal; letter-spacing: normal; orphans: 2; text-align: start; text-indent: 0px; text-transform: none; widows: 2; word-spacing: 0px; -webkit-text-stroke-width: 0px; text-decoration-thickness: initial; text-decoration-style: initial; text-decoration-color: initial; float: none; display: inline !important;&quot;&gt;细胞存活率、增殖、凋亡 &lt;/span&gt;&lt;br style=&quot;font-size: 16px;&quot;&gt;" style="whiteSpace=wrap;html=1;verticalAlign=top;fillColor=#e1d5e7;strokeColor=#9673a6;gradientColor=none;fontSize=16;fontFamily=Times New Roman;fontStyle=1;strokeWidth=2;" vertex="1" parent="1">
          <mxGeometry x="212.5" y="280" width="265" height="30" as="geometry" />
        </mxCell>
        <mxCell id="gxTMcey1-MkhpsV8qcMy-10" value="" style="edgeStyle=orthogonalEdgeStyle;rounded=0;orthogonalLoop=1;jettySize=auto;html=1;exitX=0;exitY=0.5;exitDx=0;exitDy=0;fontSize=16;fontFamily=Times New Roman;fontStyle=1;strokeWidth=2;" edge="1" parent="1" source="gxTMcey1-MkhpsV8qcMy-6" target="gxTMcey1-MkhpsV8qcMy-8">
          <mxGeometry relative="1" as="geometry" />
        </mxCell>
        <mxCell id="gxTMcey1-MkhpsV8qcMy-17" value="" style="edgeStyle=orthogonalEdgeStyle;rounded=0;orthogonalLoop=1;jettySize=auto;html=1;fontSize=16;fontFamily=Times New Roman;fontStyle=1;strokeWidth=2;" edge="1" parent="1" target="gxTMcey1-MkhpsV8qcMy-16">
          <mxGeometry relative="1" as="geometry">
            <mxPoint x="280" y="210" as="sourcePoint" />
          </mxGeometry>
        </mxCell>
        <mxCell id="gxTMcey1-MkhpsV8qcMy-6" value=" GO分析通路富集分析 " style="whiteSpace=wrap;html=1;verticalAlign=top;fillColor=#e1d5e7;strokeColor=#9673a6;gradientColor=none;fontSize=16;fontFamily=Times New Roman;fontStyle=1;strokeWidth=2;" vertex="1" parent="1">
          <mxGeometry x="227.5" y="360" width="235" height="30" as="geometry" />
        </mxCell>
        <mxCell id="gxTMcey1-MkhpsV8qcMy-8" value="&lt;span style=&quot;color: rgb(52, 53, 65); font-size: 16px; font-style: normal; font-variant-ligatures: normal; font-variant-caps: normal; letter-spacing: normal; orphans: 2; text-align: start; text-indent: 0px; text-transform: none; widows: 2; word-spacing: 0px; -webkit-text-stroke-width: 0px; text-decoration-thickness: initial; text-decoration-style: initial; text-decoration-color: initial; float: none; display: inline !important;&quot;&gt;内质网（ER）应激&amp;nbsp;&lt;/span&gt;" style="rounded=1;whiteSpace=wrap;html=1;verticalAlign=top;fillColor=#e1d5e7;strokeColor=#9673a6;gradientColor=none;fontSize=16;fontFamily=Times New Roman;fontStyle=1;strokeWidth=2;" vertex="1" parent="1">
          <mxGeometry x="30" y="400" width="255" height="30" as="geometry" />
        </mxCell>
        <mxCell id="gxTMcey1-MkhpsV8qcMy-11" value="&lt;span style=&quot;color: rgb(52, 53, 65); font-size: 16px; font-style: normal; font-variant-ligatures: normal; font-variant-caps: normal; letter-spacing: normal; orphans: 2; text-align: start; text-indent: 0px; text-transform: none; widows: 2; word-spacing: 0px; -webkit-text-stroke-width: 0px; text-decoration-thickness: initial; text-decoration-style: initial; text-decoration-color: initial; float: none; display: inline !important;&quot;&gt;免疫原性细胞死亡（ICD）&lt;/span&gt;&lt;br style=&quot;font-size: 16px;&quot;&gt;" style="whiteSpace=wrap;html=1;verticalAlign=top;fillColor=#e1d5e7;strokeColor=#9673a6;gradientColor=none;labelBackgroundColor=none;rounded=1;fontSize=16;fontFamily=Times New Roman;fontStyle=1;strokeWidth=2;" vertex="1" parent="1">
          <mxGeometry x="430" y="400" width="210" height="30" as="geometry" />
        </mxCell>
        <mxCell id="gxTMcey1-MkhpsV8qcMy-21" value="" style="edgeStyle=orthogonalEdgeStyle;rounded=0;orthogonalLoop=1;jettySize=auto;html=1;fontSize=16;fontFamily=Times New Roman;fontStyle=1;strokeWidth=2;" edge="1" parent="1" source="gxTMcey1-MkhpsV8qcMy-16" target="gxTMcey1-MkhpsV8qcMy-20">
          <mxGeometry relative="1" as="geometry" />
        </mxCell>
        <mxCell id="gxTMcey1-MkhpsV8qcMy-16" value="&lt;span style=&quot;color: rgb(52, 53, 65); font-size: 16px; font-style: normal; font-variant-ligatures: normal; font-variant-caps: normal; letter-spacing: normal; orphans: 2; text-align: start; text-indent: 0px; text-transform: none; widows: 2; word-spacing: 0px; -webkit-text-stroke-width: 0px; text-decoration-thickness: initial; text-decoration-style: initial; text-decoration-color: initial; float: none; display: inline !important;&quot;&gt;SwissTargetPrediction&lt;/span&gt;&lt;br style=&quot;font-size: 16px;&quot;&gt;" style="shape=process;whiteSpace=wrap;html=1;backgroundOutline=1;verticalAlign=top;fillColor=#e1d5e7;strokeColor=#9673a6;gradientColor=none;fontSize=16;fontFamily=Times New Roman;fontStyle=1;strokeWidth=2;" vertex="1" parent="1">
          <mxGeometry x="-220" y="400" width="235" height="30" as="geometry" />
        </mxCell>
        <mxCell id="gxTMcey1-MkhpsV8qcMy-19" style="edgeStyle=orthogonalEdgeStyle;rounded=0;orthogonalLoop=1;jettySize=auto;html=1;exitX=1;exitY=0.5;exitDx=0;exitDy=0;entryX=0.51;entryY=-0.2;entryDx=0;entryDy=0;entryPerimeter=0;fontSize=16;fontFamily=Times New Roman;fontStyle=1;strokeWidth=2;" edge="1" parent="1" source="gxTMcey1-MkhpsV8qcMy-6" target="gxTMcey1-MkhpsV8qcMy-11">
          <mxGeometry relative="1" as="geometry" />
        </mxCell>
        <mxCell id="gxTMcey1-MkhpsV8qcMy-24" style="edgeStyle=orthogonalEdgeStyle;rounded=0;orthogonalLoop=1;jettySize=auto;html=1;exitX=1;exitY=0.5;exitDx=0;exitDy=0;fontSize=16;fontFamily=Times New Roman;fontStyle=1;strokeWidth=2;" edge="1" parent="1" source="gxTMcey1-MkhpsV8qcMy-20">
          <mxGeometry relative="1" as="geometry">
            <mxPoint x="360" y="470" as="targetPoint" />
          </mxGeometry>
        </mxCell>
        <mxCell id="gxTMcey1-MkhpsV8qcMy-20" value="NQO2" style="ellipse;whiteSpace=wrap;html=1;verticalAlign=middle;fillColor=#d5e8d4;strokeColor=#82b366;fontSize=16;align=center;fontStyle=1;fontFamily=Times New Roman;strokeWidth=2;" vertex="1" parent="1">
          <mxGeometry x="-142.5" y="485" width="80" height="65" as="geometry" />
        </mxCell>
        <mxCell id="gxTMcey1-MkhpsV8qcMy-23" value="" style="endArrow=none;html=1;rounded=0;entryX=0.5;entryY=1;entryDx=0;entryDy=0;fontSize=16;fontFamily=Times New Roman;fontStyle=1;strokeWidth=2;" edge="1" parent="1" target="gxTMcey1-MkhpsV8qcMy-11">
          <mxGeometry width="50" height="50" relative="1" as="geometry">
            <mxPoint x="160" y="432" as="sourcePoint" />
            <mxPoint x="530" y="432" as="targetPoint" />
            <Array as="points">
              <mxPoint x="160" y="470" />
              <mxPoint x="340" y="470" />
              <mxPoint x="535" y="470" />
            </Array>
          </mxGeometry>
        </mxCell>
      </root>
    </mxGraphModel>
  </diagram>
</mxfile>
